<?xml version="1.0" encoding="utf-8"?>
<!-- Generator: Adobe Illustrator 18.1.1, SVG Export Plug-In . SVG Version: 6.00 Build 0)  -->
<!DOCTYPE svg PUBLIC "-//W3C//DTD SVG 1.1//EN" "http://www.w3.org/Graphics/SVG/1.1/DTD/svg11.dtd">
<svg version="1.1" id="Layer_1" xmlns="http://www.w3.org/2000/svg" xmlns:xlink="http://www.w3.org/1999/xlink" x="0px" y="0px"
	 viewBox="0 0 170.1 170.1" enable-background="new 0 0 170.1 170.1" xml:space="preserve">
<g>
	<path fill="#F9B816" d="M115.8,40.1c-3.4,0-6.3,2.4-7.1,5.6c-0.1,0.2-0.2,0.5-0.2,0.8c0,1.6-1.3,3-3,3c-1.6,0-3-1.3-3-3V41
		c0-4-3.3-7.3-7.3-7.3c-4,0-7.3,3.3-7.3,7.3v3.2c0,1.6-1.3,3-3,3c-1.6,0-3-1.3-3-3V41c0-4-3.3-7.3-7.3-7.3c-4,0-7.3,3.3-7.3,7.3
		l-0.1,7.1c0,1.6-1.3,3-3,3c-1.6,0-3-1.3-3-3c0-0.1,0-0.2,0-0.3c0-0.1,0-0.2,0-0.3c0-4-3.3-7.3-7.3-7.3c-4,0-7.3,3.3-7.3,7.3v75
		c0,4,3.3,7.3,7.3,7.3c4,0,7.3-3.3,7.3-7.3c0-1.6,1.3-3,3-3s3,1.3,3,3l0.1,6.4c0,4,3.3,7.3,7.3,7.3c4,0,7.3-3.3,7.3-7.3l-0.1-2.1
		c0-1.6,1.3-3,3-3c1.6,0,3,1.3,3,3l0.1,2.1c0,4,3.3,7.3,7.3,7.3c4,0,7.3-3.3,7.3-7.3v-6.4c0-1.6,1.3-3,3-3c1.6,0,3,1.3,3,3
		c0,4,3.3,7.3,7.3,7.3c4,0,7.3-3.3,7.3-7.3v-75C123.1,43.4,119.9,40.1,115.8,40.1z M119.8,122.4c0,2.2-1.8,4-4,4c-2.2,0-4-1.8-4-4
		c0-3.5-2.8-6.3-6.3-6.3c-3.5,0-6.3,2.8-6.3,6.3v6.4c0,2.2-1.8,4-4,4c-2.2,0-4-1.8-4-4l-0.1-2.1c0-3.5-2.8-6.3-6.3-6.3
		c-3.5,0-6.3,2.8-6.3,6.4l0.1,2.1c0,2.2-1.8,4-4,4c-2.2,0-4-1.8-4-4l-0.1-6.4c0-3.5-2.8-6.3-6.3-6.3c-3.5,0-6.3,2.8-6.3,6.3
		c0,2.2-1.8,4-4,4c-2.2,0-4-1.8-4-4v-75c0-2.2,1.8-4,4-4c2.2,0,4,1.8,4,4c0,0.1,0,0.2,0,0.3c0,0.1,0,0.2,0,0.3
		c0,3.5,2.8,6.3,6.3,6.3c3.5,0,6.3-2.8,6.3-6.3l0.1-7.1c0-2.2,1.8-4,4-4c2.2,0,4,1.8,4,4v3.2c0,3.5,2.8,6.3,6.3,6.3
		c3.5,0,6.3-2.8,6.3-6.3V41c0-2.2,1.8-4,4-4c2.2,0,4,1.8,4,4v5.5c0,3.5,2.8,6.3,6.3,6.3c2.8,0,5.2-1.9,6-4.5
		c0.2-0.3,0.3-0.6,0.3-0.9c0-2.2,1.8-4,4-4c2.2,0,4,1.8,4,4V122.4z"/>
	<path fill="#F9B816" d="M69,60.5h-9.3c-0.9,0-1.7,0.7-1.7,1.7V71c0,0.9,0.7,1.7,1.7,1.7H69c0.9,0,1.7-0.7,1.7-1.7v-8.8
		C70.7,61.3,70,60.5,69,60.5z M67.4,69.3h-5.9v-5.5h5.9V69.3z"/>
	<path fill="#F9B816" d="M89.6,60.5h-9.3c-0.9,0-1.7,0.7-1.7,1.7V71c0,0.9,0.7,1.7,1.7,1.7h9.3c0.9,0,1.7-0.7,1.7-1.7v-8.8
		C91.3,61.3,90.5,60.5,89.6,60.5z M87.9,69.3H82v-5.5h5.9V69.3z"/>
	<path fill="#F9B816" d="M110.2,60.5h-9.3c-0.9,0-1.7,0.7-1.7,1.7V71c0,0.9,0.7,1.7,1.7,1.7h9.3c0.9,0,1.7-0.7,1.7-1.7v-8.8
		C111.9,61.3,111.1,60.5,110.2,60.5z M108.5,69.3h-5.9v-5.5h5.9V69.3z"/>
	<path fill="#F9B816" d="M69,79.8h-9.3c-0.9,0-1.7,0.7-1.7,1.7v8.8c0,0.9,0.7,1.7,1.7,1.7H69c0.9,0,1.7-0.7,1.7-1.7v-8.8
		C70.7,80.5,70,79.8,69,79.8z M67.4,88.6h-5.9v-5.5h5.9V88.6z"/>
	<path fill="#F9B816" d="M89.6,79.8h-9.3c-0.9,0-1.7,0.7-1.7,1.7v8.8c0,0.9,0.7,1.7,1.7,1.7h9.3c0.9,0,1.7-0.7,1.7-1.7v-8.8
		C91.3,80.5,90.5,79.8,89.6,79.8z M87.9,88.6H82v-5.5h5.9V88.6z"/>
	<path fill="#F9B816" d="M110.2,79.8h-9.3c-0.9,0-1.7,0.7-1.7,1.7v8.8c0,0.9,0.7,1.7,1.7,1.7h9.3c0.9,0,1.7-0.7,1.7-1.7v-8.8
		C111.9,80.5,111.1,79.8,110.2,79.8z M108.5,88.6h-5.9v-5.5h5.9V88.6z"/>
	<path fill="#F9B816" d="M69,98.5h-9.3c-0.9,0-1.7,0.7-1.7,1.7v8.8c0,0.9,0.7,1.7,1.7,1.7H69c0.9,0,1.7-0.7,1.7-1.7v-8.8
		C70.7,99.3,70,98.5,69,98.5z M67.4,107.3h-5.9v-5.5h5.9V107.3z"/>
	<path fill="#F9B816" d="M89.6,98.5h-9.3c-0.9,0-1.7,0.7-1.7,1.7v8.8c0,0.9,0.7,1.7,1.7,1.7h9.3c0.9,0,1.7-0.7,1.7-1.7v-8.8
		C91.3,99.3,90.5,98.5,89.6,98.5z M87.9,107.3H82v-5.5h5.9V107.3z"/>
	<path fill="#F9B816" d="M110.2,98.5h-9.3c-0.9,0-1.7,0.7-1.7,1.7v8.8c0,0.9,0.7,1.7,1.7,1.7h9.3c0.9,0,1.7-0.7,1.7-1.7v-8.8
		C111.9,99.3,111.1,98.5,110.2,98.5z M108.5,107.3h-5.9v-5.5h5.9V107.3z"/>
</g>
</svg>
